<mxfile host="app.diagrams.net" modified="2023-08-26T00:23:11.816Z" agent="Mozilla/5.0 (Windows NT 10.0; Win64; x64) AppleWebKit/537.36 (KHTML, like Gecko) Chrome/116.0.0.0 Safari/537.36" version="21.6.9" etag="xLnJDNhsd9iQEtKsB_Uf" type="github">
  <diagram name="PÃ¡gina-1" id="JelgjD2opffosa8SOde1">
    <mxGraphModel>
      <root>
        <mxCell id="0" />
        <mxCell id="1" parent="0" />
      </root>
    </mxGraphModel>
  </diagram>
</mxfile>
